<?xml version="1.0" standalone="no"?>
<!DOCTYPE svg PUBLIC "-//W3C//DTD SVG 20010904//EN"
 "http://www.w3.org/TR/2001/REC-SVG-20010904/DTD/svg10.dtd">
<svg version="1.0" xmlns="http://www.w3.org/2000/svg"
 width="922.000000pt" height="980.000000pt" viewBox="0 0 922.000000 980.000000"
 preserveAspectRatio="xMidYMid meet">

<g transform="translate(0.000000,980.000000) scale(0.100000,-0.100000)"
fill="#000000" stroke="none">
<path d="M4390 9794 c-552 -52 -1025 -238 -1385 -546 -485 -414 -657 -935
-601 -1821 9 -142 25 -319 36 -393 26 -174 26 -172 -7 -179 -79 -16 -105 -29
-151 -73 -31 -28 -62 -71 -79 -107 -28 -60 -28 -61 -27 -255 1 -176 4 -204 27
-293 47 -178 148 -362 271 -497 45 -49 71 -90 100 -156 51 -118 273 -544 342
-655 281 -454 634 -802 989 -975 114 -55 301 -116 430 -140 151 -29 422 -26
574 4 368 74 645 235 956 554 263 269 410 486 666 981 136 263 195 360 266
443 101 119 183 291 224 474 25 112 36 324 20 414 -27 153 -122 265 -226 266
-60 1 -60 0 -37 197 34 273 42 413 42 693 0 280 -10 413 -42 560 -119 553
-457 976 -996 1244 -239 119 -475 192 -774 237 -129 20 -503 33 -618 23z
m-590 -1535 c678 -603 1346 -845 2508 -905 106 -5 135 -10 140 -22 13 -35 -40
-422 -104 -762 -53 -276 -54 -272 24 -115 92 184 154 255 224 255 41 0 94 -46
125 -107 25 -51 28 -71 31 -168 3 -92 -1 -126 -22 -210 -32 -122 -108 -278
-176 -360 -89 -106 -144 -197 -224 -370 -269 -579 -438 -847 -701 -1111 -138
-138 -202 -185 -359 -260 -230 -110 -323 -128 -656 -128 -342 0 -437 18 -647
120 -398 195 -682 556 -1047 1333 -118 250 -140 289 -238 404 -125 147 -197
336 -205 538 -7 150 10 215 72 276 37 37 48 43 86 43 65 0 118 -60 208 -239
40 -79 74 -141 76 -139 1 1 -15 95 -36 208 -85 445 -123 810 -103 992 12 113
37 171 138 323 130 194 297 353 455 431 83 42 233 93 271 93 18 0 64 -34 160
-120z"/>
<path d="M4200 3286 c-94 -84 -200 -203 -200 -226 0 -23 126 -195 202 -274 42
-45 108 -106 147 -136 38 -30 70 -58 70 -62 1 -5 -94 -245 -209 -534 -209
-522 -211 -526 -194 -553 119 -183 281 -348 519 -527 l75 -56 107 83 c172 135
428 400 497 516 4 7 -87 245 -205 538 l-211 526 149 152 c148 151 277 308 271
332 -6 26 -129 165 -207 233 l-81 72 -318 0 -317 0 -95 -84z"/>
<path d="M3030 3349 c-13 -5 -245 -75 -515 -155 -1141 -339 -1413 -439 -1749
-643 -259 -157 -375 -270 -466 -455 -199 -408 -262 -807 -285 -1824 l-7 -272
4601 0 4601 0 0 53 c0 138 -21 760 -30 902 -21 319 -60 560 -130 797 -126 432
-252 598 -617 814 -302 179 -574 282 -1368 519 -253 75 -563 168 -688 207
-126 38 -230 68 -232 66 -2 -2 1 -23 5 -48 12 -62 12 -454 0 -570 -28 -268
-168 -591 -425 -980 -261 -395 -577 -744 -898 -993 -223 -173 -216 -173 -486
43 -392 315 -746 743 -1015 1230 -233 422 -295 700 -263 1193 5 70 5 127 0
126 -4 0 -19 -5 -33 -10z"/>
</g>
</svg>
